<?xml version="1.0" encoding="utf-8"?>
<!-- Generator: Adobe Illustrator 26.4.1, SVG Export Plug-In . SVG Version: 6.00 Build 0)  -->
<svg version="1.1" id="Layer_1" xmlns="http://www.w3.org/2000/svg" xmlns:xlink="http://www.w3.org/1999/xlink" x="0px" y="0px"
	 viewBox="0 0 150 27" style="enable-background:new 0 0 150 27;" xml:space="preserve">
<style type="text/css">
	.st0{fill:url(#SVGID_1_);}
	.st1{fill:url(#SVGID_00000044890148889949072140000007726983463214962583_);}
	.st2{fill:url(#SVGID_00000011735547340690904590000014199357247123662738_);}
	.st3{fill:url(#SVGID_00000183245987968746242420000007545797198002932391_);}
	.st4{fill:url(#SVGID_00000070105800122923646150000004437637622617829787_);}
	.st5{fill:url(#SVGID_00000054245849840045817610000006341335045776754865_);}
	.st6{fill:url(#SVGID_00000121279066968139231920000006489046565647470250_);}
	.st7{fill:url(#SVGID_00000156588384621689982030000002004069923429139370_);}
	.st8{fill:url(#SVGID_00000080908127098000986410000008777942185892941723_);}
	.st9{fill:#7857FF;}
	.st10{fill:#35333D;}
</style>
<g>
	
		<linearGradient id="SVGID_1_" gradientUnits="userSpaceOnUse" x1="31.1326" y1="26.2247" x2="31.4438" y2="26.2184" gradientTransform="matrix(1 0 0 -1 0 28)">
		<stop  offset="0" style="stop-color:#26A4FF"/>
		<stop  offset="1" style="stop-color:#0D9AFF"/>
	</linearGradient>
	<path class="st0" d="M31.3,1.9c0.1,0,0.2-0.1,0.2-0.2c0-0.1-0.1-0.2-0.2-0.2c-0.1,0-0.2,0.1-0.2,0.2C31.1,1.9,31.2,1.9,31.3,1.9z"
		/>
</g>
<g>
	
		<linearGradient id="SVGID_00000145035562671878277490000016755111346888035737_" gradientUnits="userSpaceOnUse" x1="5.083" y1="22.392" x2="5.8903" y2="22.3756" gradientTransform="matrix(1 0 0 -1 0 28)">
		<stop  offset="0" style="stop-color:#26A4FF"/>
		<stop  offset="1" style="stop-color:#0D9AFF"/>
	</linearGradient>
	<path style="fill:url(#SVGID_00000145035562671878277490000016755111346888035737_);" d="M5.5,6c0.2,0,0.4-0.2,0.4-0.4
		c0-0.2-0.2-0.4-0.4-0.4S5.1,5.4,5.1,5.6C5.1,5.8,5.2,6,5.5,6z"/>
</g>
<g>
	
		<linearGradient id="SVGID_00000041975534584405339400000007037378221271488703_" gradientUnits="userSpaceOnUse" x1="0.9009" y1="10.0236" x2="1.7082" y2="10.0074" gradientTransform="matrix(1 0 0 -1 0 28)">
		<stop  offset="0" style="stop-color:#26A4FF"/>
		<stop  offset="1" style="stop-color:#0D9AFF"/>
	</linearGradient>
	<path style="fill:url(#SVGID_00000041975534584405339400000007037378221271488703_);" d="M1.3,18.4c0.2,0,0.4-0.2,0.4-0.4
		c0-0.2-0.2-0.4-0.4-0.4S0.9,17.8,0.9,18C0.9,18.2,1.1,18.4,1.3,18.4z"/>
</g>
<g>
	
		<linearGradient id="SVGID_00000169557436251892660560000006844248905498731430_" gradientUnits="userSpaceOnUse" x1="24.9415" y1="6.6285" x2="25.7488" y2="6.6121" gradientTransform="matrix(1 0 0 -1 0 28)">
		<stop  offset="0" style="stop-color:#26A4FF"/>
		<stop  offset="1" style="stop-color:#0D9AFF"/>
	</linearGradient>
	<path style="fill:url(#SVGID_00000169557436251892660560000006844248905498731430_);" d="M25.3,21.8c0.2,0,0.4-0.2,0.4-0.4
		S25.5,21,25.3,21c-0.2,0-0.4,0.2-0.4,0.4S25.1,21.8,25.3,21.8z"/>
</g>
<g>
	
		<linearGradient id="SVGID_00000145035877329967980650000008628719725624990901_" gradientUnits="userSpaceOnUse" x1="6.1614" y1="13.5142" x2="6.4727" y2="13.508" gradientTransform="matrix(1 0 0 -1 0 28)">
		<stop  offset="0" style="stop-color:#26A4FF"/>
		<stop  offset="1" style="stop-color:#0D9AFF"/>
	</linearGradient>
	<path style="fill:url(#SVGID_00000145035877329967980650000008628719725624990901_);" d="M6.3,14.7c0.1,0,0.2-0.1,0.2-0.2
		s-0.1-0.2-0.2-0.2c-0.1,0-0.2,0.1-0.2,0.2S6.2,14.7,6.3,14.7z"/>
</g>
<g>
	
		<linearGradient id="SVGID_00000101070445823712346190000001349971225992905371_" gradientUnits="userSpaceOnUse" x1="12.0738" y1="26.7489" x2="12.5628" y2="26.739" gradientTransform="matrix(1 0 0 -1 0 28)">
		<stop  offset="0" style="stop-color:#26A4FF"/>
		<stop  offset="1" style="stop-color:#0D9AFF"/>
	</linearGradient>
	<path style="fill:url(#SVGID_00000101070445823712346190000001349971225992905371_);" d="M12.3,1.5c0.1,0,0.2-0.1,0.2-0.3
		S12.4,1,12.3,1c-0.1,0-0.2,0.1-0.2,0.3S12.2,1.5,12.3,1.5z"/>
</g>
<g>
	
		<linearGradient id="SVGID_00000019637584466829037470000010370891871756084920_" gradientUnits="userSpaceOnUse" x1="3.979" y1="16.5612" x2="1.5421" y2="16.1573" gradientTransform="matrix(1 0 0 -1 0 28)">
		<stop  offset="0" style="stop-color:#26A4FF"/>
		<stop  offset="1" style="stop-color:#0D9AFF"/>
	</linearGradient>
	<path style="fill:url(#SVGID_00000019637584466829037470000010370891871756084920_);" d="M3,12.9c-0.1,0-0.2,0-0.2-0.1
		C2.6,12,2.5,11.9,1.8,12c-0.1,0-0.2-0.1-0.2-0.1c0-0.1,0-0.2,0.1-0.2c0.7-0.2,0.8-0.3,0.8-1.1c0-0.1,0.1-0.2,0.1-0.2
		c0.1,0,0.2,0,0.2,0.1c0.2,0.8,0.3,0.8,1.1,0.8c0.1,0,0.2,0.1,0.2,0.1c0,0.1,0,0.2-0.1,0.2c-0.7,0.2-0.8,0.3-0.8,1.1
		C3.1,12.8,3.1,12.9,3,12.9z"/>
</g>
<linearGradient id="SVGID_00000087390457168974329260000014624006375461249685_" gradientUnits="userSpaceOnUse" x1="2.4482" y1="27.404" x2="27.389" y2="3.4225" gradientTransform="matrix(1 0 0 -1 0 28)">
	<stop  offset="0" style="stop-color:#868CFF"/>
	<stop  offset="1" style="stop-color:#4318FF"/>
</linearGradient>
<path style="fill:url(#SVGID_00000087390457168974329260000014624006375461249685_);" d="M16.4,6.2c-0.2,0.1-0.4,0.3-0.4,0.5
	c0,0.2,0.1,0.4,0.4,0.5c1.7,0.7,3,2,3.6,3.8c0.1,0.2,0.3,0.4,0.5,0.4c0.2,0,0.4-0.1,0.5-0.4c0.6-1.8,2-3.1,3.6-3.8
	c0.2-0.1,0.4-0.3,0.4-0.5c0-0.2-0.1-0.4-0.4-0.5c-1.7-0.7-3-2-3.6-3.8C21,2.2,20.8,2,20.6,2c-0.2,0-0.4,0.1-0.5,0.4
	C19.4,4.2,18.1,5.5,16.4,6.2z M10.7,5.6c-0.1-0.3-0.4-0.5-0.7-0.5c-0.3,0-0.6,0.2-0.7,0.5c-1.6,3.6-4.4,6.5-7.8,8.1
	c-0.3,0.1-0.4,0.4-0.4,0.7c0,0.3,0.2,0.6,0.4,0.7c3.4,1.7,6.2,4.5,7.8,8.1c0.1,0.3,0.4,0.5,0.7,0.5c0.3,0,0.6-0.2,0.7-0.5
	c1.6-3.6,4.4-6.5,7.8-8.1c0.3-0.1,0.4-0.4,0.4-0.7c0-0.3-0.2-0.6-0.4-0.7C15,12.1,12.3,9.2,10.7,5.6z M20.1,18
	c-0.6,1.8-2,3.1-3.6,3.8c-0.2,0.1-0.4,0.3-0.4,0.5c0,0.2,0.1,0.4,0.4,0.5c1.7,0.7,3,2,3.6,3.8c0.1,0.2,0.3,0.4,0.5,0.4
	c0.2,0,0.4-0.1,0.5-0.4c0.6-1.8,2-3.1,3.6-3.8c0.2-0.1,0.4-0.3,0.4-0.5c0-0.2-0.1-0.4-0.4-0.5c-1.7-0.7-3-2-3.6-3.8
	c-0.1-0.2-0.3-0.4-0.5-0.4C20.3,17.6,20.1,17.8,20.1,18z"/>
<g>
	
		<linearGradient id="SVGID_00000163765906384598368930000000689903270772342719_" gradientUnits="userSpaceOnUse" x1="25.4988" y1="22.2116" x2="22.1175" y2="22.6081" gradientTransform="matrix(1 0 0 -1 0 28)">
		<stop  offset="0" style="stop-color:#26A4FF"/>
		<stop  offset="1" style="stop-color:#0D9AFF"/>
	</linearGradient>
	<path style="fill:url(#SVGID_00000163765906384598368930000000689903270772342719_);" d="M23.7,7.4c-0.1,0-0.2-0.1-0.2-0.2
		c0-1.1-0.1-1.3-1.1-1.5c-0.1,0-0.2-0.1-0.2-0.3c0-0.1,0.1-0.2,0.2-0.2c1,0,1.1-0.1,1.5-1.1c0-0.1,0.1-0.2,0.2-0.2
		c0.1,0,0.2,0.1,0.2,0.2c0,1.1,0.1,1.3,1.1,1.5c0.1,0,0.2,0.1,0.2,0.3c0,0.1-0.1,0.2-0.2,0.2c-1,0-1.1,0.1-1.5,1.1
		C23.9,7.3,23.8,7.4,23.7,7.4z"/>
</g>
<g>
	<g>
		<path class="st9" d="M40.6,8.1v14.1h-3.8V8.1H32V4.8h13.2v3.4H40.6z"/>
		<path class="st9" d="M50.7,22.2L46.8,4.8h3.8l1.6,8.4l0.9,4.8h0.1l1.1-4.8l1.9-8.4h4.1l2,8.4l1.1,4.8h0.1l0.9-4.8L66,4.8h3.6
			l-4.1,17.5h-4.3l-2.2-9.5L58.2,9h-0.1l-0.9,3.8l-2.2,9.5H50.7z"/>
		<path class="st9" d="M71.6,22.2v-3h2.2V7.8h-2.2v-3h8.3v3h-2.2v11.4h2.2v3H71.6z"/>
		<path class="st9" d="M88.4,14l-1.7-3.5h-0.1v11.8h-3.6V4.8h4.2L92,13l1.7,3.5h0.1V4.8h3.6v17.5h-4.1L88.4,14z"/>
		<path class="st9" d="M112.3,19.4h-0.1c-0.1,0.9-0.6,1.6-1.3,2.2c-0.8,0.6-1.8,0.9-3.1,0.9c-1,0-1.9-0.2-2.8-0.6
			c-0.9-0.4-1.6-1-2.3-1.7c-0.7-0.8-1.2-1.7-1.5-2.8c-0.4-1.1-0.5-2.4-0.5-3.9c0-1.5,0.2-2.8,0.6-3.9c0.4-1.1,0.9-2.1,1.6-2.9
			s1.5-1.4,2.5-1.8s2-0.6,3.2-0.6c1.6,0,2.9,0.3,4,1c1.1,0.7,2,1.7,2.7,3l-3.1,1.8c-0.3-0.7-0.7-1.3-1.2-1.7
			c-0.6-0.5-1.4-0.7-2.4-0.7c-1.2,0-2.1,0.3-2.8,1c-0.7,0.7-1,1.8-1,3.2v2.8c0,1.5,0.3,2.5,1,3.2s1.6,1,2.8,1c0.5,0,0.9-0.1,1.3-0.2
			c0.4-0.1,0.8-0.3,1.1-0.5c0.3-0.2,0.6-0.5,0.7-0.8s0.3-0.7,0.3-1.1v-0.9h-3.2v-3.2h6.9v9.7h-3.2V19.4z"/>
		<path class="st9" d="M119.2,22.2V4.8H131v3.4H123v3.6h6.9v3.4H123v3.8h8.1v3.4H119.2z"/>
	</g>
	<g>
		<path class="st10" d="M141.4,22.2h-0.3l-0.3-1.8h-1.9l-0.3,1.8h-0.3l1.2-8.7h-0.3l-1.2,8.7h-0.3l1.2-8.7h-0.3l-1.2,8.7h-0.3
			l1.2-8.7h-0.3l-1.2,8.7h-0.3l1.2-8.7h-0.3l-1.2,8.7H136l1.2-8.7l0-0.3h2.6c0,0,0,0,0,0c0,0,0,0,0,0c0.1,0,0.1,0.1,0.1,0.1l0.2,1.1
			L141.4,22.2z M140.8,14.4c0,0.3,0.1,0.6,0.2,1.1c0.1,0.4,0.1,0.9,0.2,1.3c0.1,0.5,0.1,1,0.2,1.5c0.1,0.5,0.1,1,0.2,1.5
			c0.1,0.5,0.1,0.9,0.2,1.4c0.1,0.4,0.1,0.8,0.1,1.1h-0.3c-0.1-0.6-0.2-1.3-0.3-2.1c-0.1-0.8-0.2-1.6-0.3-2.4
			c-0.1-0.8-0.2-1.6-0.3-2.4s-0.2-1.5-0.3-2c0-0.1,0-0.1-0.1-0.2c-0.1-0.1-0.1-0.1-0.2-0.1c0,0-0.1,0-0.1,0h-2.6l0-0.3h2.7
			c0.1,0,0.3,0,0.4,0.1c0.1,0.1,0.2,0.2,0.2,0.3L140.8,14.4z M141.4,14.3c0,0.3,0.1,0.6,0.1,1.1c0.1,0.4,0.1,0.9,0.2,1.4
			c0.1,0.5,0.1,1,0.2,1.5c0.1,0.5,0.1,1,0.2,1.5c0.1,0.5,0.1,0.9,0.2,1.4c0.1,0.4,0.1,0.8,0.2,1.1h-0.3c-0.1-0.6-0.2-1.3-0.3-2
			s-0.2-1.6-0.3-2.4s-0.2-1.6-0.3-2.4c-0.1-0.8-0.2-1.5-0.3-2c0-0.2-0.1-0.5-0.2-0.7c-0.1-0.2-0.3-0.3-0.6-0.3h-2.7l0-0.3
			c0,0,0.1,0,0.3,0c0.2,0,0.3,0,0.5,0c0.2,0,0.4,0,0.7,0c0.2,0,0.5,0,0.7,0c0.2,0,0.4,0,0.5,0c0.1,0,0.2,0,0.3,0
			c0.2,0.1,0.4,0.1,0.5,0.3c0.1,0.1,0.2,0.3,0.3,0.5c0,0.1,0,0.1,0,0.2c0,0.1,0,0.1,0,0.2l0.1,0.8c0,0.1,0,0.1,0,0.2
			C141.4,14.2,141.4,14.3,141.4,14.3z M141.9,14.2c0,0.3,0.1,0.6,0.2,1.1c0.1,0.4,0.1,0.9,0.2,1.4c0.1,0.5,0.1,1,0.2,1.5
			c0.1,0.5,0.1,1,0.2,1.5s0.1,1,0.2,1.4c0.1,0.4,0.1,0.8,0.1,1.1h-0.3c-0.1-0.6-0.2-1.4-0.3-2.2c-0.1-0.8-0.2-1.7-0.4-2.5
			c-0.1-0.9-0.2-1.7-0.4-2.5c-0.1-0.8-0.2-1.5-0.3-2.2c0-0.2-0.2-0.4-0.3-0.6s-0.4-0.3-0.6-0.3c-0.1,0-0.2,0-0.5,0
			c-0.3,0-0.6,0-0.9,0s-0.7,0-1,0s-0.5,0-0.6,0l0-0.3c0.1,0,0.3,0,0.6,0c0.3,0,0.6,0,1,0s0.7,0,1,0c0.3,0,0.5,0,0.6,0.1
			c0.3,0.1,0.5,0.2,0.7,0.5s0.3,0.5,0.4,0.8c0,0.2,0.1,0.4,0.1,0.7C141.9,13.8,141.9,14,141.9,14.2z M142.5,14.2
			c0,0.3,0.1,0.6,0.1,1.1c0.1,0.4,0.1,0.9,0.2,1.4c0.1,0.5,0.1,1,0.2,1.5c0.1,0.5,0.1,1,0.2,1.5s0.1,1,0.2,1.4
			c0.1,0.4,0.1,0.8,0.1,1.1h-0.3c-0.1-0.4-0.1-0.9-0.2-1.4c-0.1-0.5-0.1-1-0.2-1.6c-0.1-0.6-0.2-1.1-0.2-1.7s-0.2-1.1-0.2-1.7
			c-0.1-0.6-0.2-1.1-0.2-1.6c-0.1-0.5-0.1-1-0.2-1.4c-0.1-0.4-0.2-0.7-0.5-1c-0.2-0.3-0.6-0.5-0.9-0.5c-0.1,0-0.2,0-0.5,0
			c-0.3,0-0.6,0-0.9,0s-0.7,0-1,0s-0.5,0-0.6,0l0-0.3c0.1,0,0.2,0,0.3,0s0.3,0,0.6,0s0.4,0,0.7,0c0.2,0,0.5,0,0.7,0s0.4,0,0.5,0
			c0.2,0,0.3,0,0.3,0c0.5,0.1,0.9,0.3,1.1,0.7c0.3,0.3,0.4,0.7,0.5,1.2c0,0.2,0,0.4,0.1,0.6S142.5,14,142.5,14.2z M140.8,20.2l0-0.3
			h-1.8l0,0.3H140.8z M140.7,19.3H139l0,0.3h1.7L140.7,19.3z M140.6,19.1l0-0.3h-1.5l0,0.3H140.6z M140.5,18.5l0-0.3h-1.3l0,0.3
			H140.5z M139.8,13.6l-0.6,4.3h1.2L139.8,13.6z"/>
		<path class="st10" d="M144.8,11h0.3v11.2h-0.3V11z M145.4,11h0.3v11.2h-0.3V11z M146,11h0.3v11.2H146V11z M146.5,11h0.3v11.2h-0.3
			V11z M147.1,11h0.3v11.2h-0.3V11z"/>
	</g>
</g>
</svg>
